<svg xmlns="http://www.w3.org/2000/svg" viewBox="0 0 512 512">
  <rect width="512" height="512" rx="96" fill="#1a3a5c"/>
  <rect x="96" y="128" width="320" height="288" rx="24" fill="#fff" opacity="0.95"/>
  <rect x="96" y="128" width="320" height="64" rx="24" fill="#14304f"/>
  <rect x="96" y="168" width="320" height="24" fill="#14304f"/>
  <circle cx="176" cy="160" r="14" fill="#fff"/>
  <circle cx="256" cy="160" r="14" fill="#fff"/>
  <circle cx="336" cy="160" r="14" fill="#fff"/>
  <rect x="128" y="224" width="56" height="20" rx="4" fill="#dc2626"/>
  <rect x="128" y="256" width="56" height="20" rx="4" fill="#16a34a"/>
  <rect x="128" y="288" width="56" height="20" rx="4" fill="#1a3a5c"/>
  <rect x="200" y="224" width="56" height="20" rx="4" fill="#f59e0b"/>
  <rect x="200" y="256" width="56" height="20" rx="4" fill="#3b82f6"/>
  <rect x="272" y="224" width="56" height="20" rx="4" fill="#7c3aed"/>
  <rect x="272" y="256" width="56" height="20" rx="4" fill="#64748b"/>
  <rect x="272" y="288" width="56" height="20" rx="4" fill="#0d9488"/>
  <rect x="344" y="224" width="56" height="20" rx="4" fill="#dc2626"/>
  <rect x="128" y="336" width="56" height="20" rx="4" fill="#3b82f6"/>
  <rect x="128" y="368" width="56" height="20" rx="4" fill="#16a34a"/>
  <rect x="200" y="336" width="56" height="20" rx="4" fill="#1a3a5c"/>
  <rect x="344" y="288" width="56" height="20" rx="4" fill="#f59e0b"/>
  <rect x="344" y="336" width="56" height="20" rx="4" fill="#0d9488"/>
  <line x1="128" y1="316" x2="384" y2="316" stroke="#e5e7eb" stroke-width="1"/>
  <line x1="128" y1="352" x2="384" y2="352" stroke="#e5e7eb" stroke-width="1"/>
  <line x1="192" y1="216" x2="192" y2="400" stroke="#e5e7eb" stroke-width="1"/>
  <line x1="264" y1="216" x2="264" y2="400" stroke="#e5e7eb" stroke-width="1"/>
  <line x1="336" y1="216" x2="336" y2="400" stroke="#e5e7eb" stroke-width="1"/>
</svg>
